<?xml version="1.0" encoding="utf-8"?>
<!-- Generator: Adobe Illustrator 21.0.0, SVG Export Plug-In . SVG Version: 6.00 Build 0)  -->
<svg version="1.1" id="Layer_1" xmlns="http://www.w3.org/2000/svg" xmlns:xlink="http://www.w3.org/1999/xlink" x="0px" y="0px"
	 viewBox="0 0 100 100" style="enable-background:new 0 0 100 100;" xml:space="preserve">
<g>
	<path d="M60.1,0H4v2c1.6,0.4,2.7,1,3.3,1.6c0.6,0.7,0.9,1.7,0.9,3v72.6c0,1.3-0.3,2.2-0.9,2.9c-0.6,0.7-1.7,1.2-3.3,1.6v2h28v-2
		c-1.5-0.4-2.6-0.9-3.2-1.6c-0.6-0.7-0.9-1.7-0.9-2.9V50.8h23.9l0.2,0.2l5.5-14.4H27.8V14.1H58c3.4,0,6,0.1,7.9,0.2l5.3-13.9
		C68,0.1,64.3,0,60.1,0z"/>
	<path d="M97,98v2H64.6v-2c2.2-0.3,3.3-1.1,3.3-2.3c0-0.7-1-2.6-3.1-5.5l-18-25l5.5-14.4H53c4.5,0,7.6-0.1,9.5-0.4
		c1.8-0.3,3.5-0.8,5.1-1.6c3.3-1.7,5-4.8,5-9.3c0-4.5-1.7-7.6-5-9.3c-1.6-0.8-3.2-1.4-5-1.6c-0.4-0.1-1-0.1-1.6-0.1l5.3-13.9
		c1.9,0.2,3.6,0.4,5.1,0.7c4,0.8,7.5,2.1,10.5,4c3.5,2.2,6,5.1,7.7,8.9c1.6,3.6,2.4,7.5,2.4,11.6c0,14-8.1,22.2-24.4,24.6L85.1,88
		c3.1,4.1,5.3,6.8,6.7,8C93.2,97.2,94.9,97.9,97,98z"/>
</g>
</svg>
